# xmcd
#
# Track frame offsets:
# 150
# 12162
# 25367
# 39282
# 52802
# 66602
# 84197
# 98235
# 113267
# 126160
# 141290
# 157930
# 173625
# 183622
# 196520
# 211555
#
# Disc length: 3017 seconds
#
#
# Revision: 0
# Processed by: cddbd v1.5.1PL0 Copyright (c) Steve Scherf et al.
# Submitted via: FreeRIP 2.942 
#
DISCID=c00bc710
DTITLE=Harlem Saturday Night CD3
DYEAR=1900
DGENRE=Jazz
TTITLE0=If Dreams Come TRue
TTITLE1=Its a SinTo Tell A Lie
TTITLE2=Wild Party
TTITLE3=G.I. Jive
TTITLE4=I Must Have That Man
TTITLE5=Rockin' In Rythm
TTITLE6=Carelessly
TTITLE7=You Can't Get That No More
TTITLE8=I'm In The Mood For Swing
TTITLE9=One For My Baby And One More For The Road
TTITLE10=Jumpin' At The Woodside
TTITLE11=Harlem On My Mind
TTITLE12=SWing Low, Sweet Chariot
TTITLE13=Caravan
TTITLE14=After Hours
TTITLE15=St. James Infirmary
EXTD=
EXTT0=
EXTT1=
EXTT2=
EXTT3=
EXTT4=
EXTT5=
EXTT6=
EXTT7=
EXTT8=
EXTT9=
EXTT10=
EXTT11=
EXTT12=
EXTT13=
EXTT14=
EXTT15=
PLAYORDER=
